# xmcd
#
# Track frame offsets:
#	150
#	27832
#	51872
#	73967
#	100247
#	117232
#	137265
#	149690
#	172087
#	186077
#	210300
#
# Disc length: 3247 seconds
#
# Revision: 0
# Processed by: cddbd v1.4PL0 Copyright (c) Steve Scherf et al.
# Submitted via: EasyCDDAExtractor 4.6.9.1
#
DISCID=a20cad0b
DTITLE=김영동 - 바람의 소리
DYEAR=0001
DGENRE=국악
TTITLE0=바람의 소리
TTITLE1=메아리
TTITLE2=노을
TTITLE3=열락
TTITLE4=해후
TTITLE5=흘러가네
TTITLE6=사랑의 춤
TTITLE7=이별
TTITLE8=산행
TTITLE9=귀소
TTITLE10=영가
EXTD=
EXTT0=
EXTT1=
EXTT2=
EXTT3=
EXTT4=
EXTT5=
EXTT6=
EXTT7=
EXTT8=
EXTT9=
EXTT10=
PLAYORDER=
